<svg width="16" height="16" viewBox="0 0 16 16" fill="none" xmlns="http://www.w3.org/2000/svg">
<path d="M7.99998 7.3335V10.0002M9.33331 8.66683H6.66665M10.6666 4.00016V2.66683C10.6666 2.31321 10.5262 1.97407 10.2761 1.72402C10.0261 1.47397 9.68694 1.3335 9.33331 1.3335H6.66665C6.31302 1.3335 5.97389 1.47397 5.72384 1.72402C5.47379 1.97407 5.33331 2.31321 5.33331 2.66683V4.00016M12 4.00016V13.3335M3.99998 4.00016V13.3335M2.66665 4.00016H13.3333C14.0697 4.00016 14.6666 4.59712 14.6666 5.3335V12.0002C14.6666 12.7365 14.0697 13.3335 13.3333 13.3335H2.66665C1.93027 13.3335 1.33331 12.7365 1.33331 12.0002V5.3335C1.33331 4.59712 1.93027 4.00016 2.66665 4.00016Z" stroke="#506083" stroke-width="1.33" stroke-linecap="round" stroke-linejoin="round"/>
</svg>
