<svg width="16" height="16" viewBox="0 0 16 16" fill="none" xmlns="http://www.w3.org/2000/svg">
<g clip-path="url(#clip0_1094_5496)">
<path d="M4.66671 13.7748V12.6668C4.66671 12.3132 4.80718 11.9741 5.05723 11.724C5.30728 11.474 5.64642 11.3335 6.00004 11.3335H10C10.3537 11.3335 10.6928 11.474 10.9428 11.724C11.1929 11.9741 11.3334 12.3132 11.3334 12.6668V13.7748M14.6667 8.00016C14.6667 11.6821 11.6819 14.6668 8.00004 14.6668C4.31814 14.6668 1.33337 11.6821 1.33337 8.00016C1.33337 4.31826 4.31814 1.3335 8.00004 1.3335C11.6819 1.3335 14.6667 4.31826 14.6667 8.00016ZM10 6.66683C10 7.7714 9.10461 8.66683 8.00004 8.66683C6.89547 8.66683 6.00004 7.7714 6.00004 6.66683C6.00004 5.56226 6.89547 4.66683 8.00004 4.66683C9.10461 4.66683 10 5.56226 10 6.66683Z" stroke="#2B297E" stroke-width="1.33" stroke-linecap="round" stroke-linejoin="round"/>
</g>
<defs>
<clipPath id="clip0_1094_5496">
<rect width="16" height="16" fill="white"/>
</clipPath>
</defs>
</svg>
