<svg width="16" height="16" viewBox="0 0 16 16" fill="none" xmlns="http://www.w3.org/2000/svg">
<path d="M6.06004 5.99989C6.21677 5.55434 6.52614 5.17863 6.93334 4.93931C7.34054 4.7 7.8193 4.61252 8.28482 4.69237C8.75034 4.77222 9.17258 5.01424 9.47676 5.37558C9.78093 5.73691 9.94741 6.19424 9.94671 6.66656C9.94671 7.99989 7.94671 8.66656 7.94671 8.66656M7.99998 11.3332H8.00665M5.26665 13.3332C6.53903 13.9859 8.0027 14.1627 9.3939 13.8317C10.7851 13.5007 12.0123 12.6838 12.8545 11.528C13.6966 10.3722 14.0983 8.95367 13.987 7.52798C13.8758 6.10228 13.259 4.76318 12.2479 3.752C11.2367 2.74081 9.89757 2.12404 8.47187 2.01281C7.04617 1.90159 5.62763 2.30323 4.47186 3.14537C3.31609 3.9875 2.49911 5.21474 2.16813 6.60594C1.83715 7.99714 2.01394 9.46082 2.66665 10.7332L1.33331 14.6665L5.26665 13.3332Z" stroke="#506083" stroke-width="1.33" stroke-linecap="round" stroke-linejoin="round"/>
</svg>
