<svg width="18" height="18" viewBox="0 0 18 18" fill="currentColor" xmlns="http://www.w3.org/2000/svg">
<path d="M4.35355 8.64645L4 8.29289L3.29289 9L3.64645 9.35355L4.35355 8.64645ZM9 14L8.64645 14.3536L9 14.7071L9.35355 14.3536L9 14ZM14.3536 9.35355L14.7071 9L14 8.29289L13.6464 8.64645L14.3536 9.35355ZM9.5 1V0.5H8.5V1H9.5ZM0.5 10V16H1.5V10H0.5ZM2 17.5H16V16.5H2V17.5ZM17.5 16V10H16.5V16H17.5ZM16 17.5C16.8284 17.5 17.5 16.8284 17.5 16H16.5C16.5 16.2761 16.2761 16.5 16 16.5V17.5ZM0.5 16C0.5 16.8284 1.17157 17.5 2 17.5V16.5C1.72386 16.5 1.5 16.2761 1.5 16H0.5ZM3.64645 9.35355L8.64645 14.3536L9.35355 13.6464L4.35355 8.64645L3.64645 9.35355ZM9.35355 14.3536L14.3536 9.35355L13.6464 8.64645L8.64645 13.6464L9.35355 14.3536ZM9.5 14V1H8.5V14H9.5Z" />
</svg>
