<svg width="21" height="22" viewBox="0 0 21 22" fill="none" stroke="currentColor" stroke-linecap="square" xmlns="http://www.w3.org/2000/svg"><path d="M13 12v4m0 2v.1m2.159-7.322 4.131 7.23c.762 1.333-.2 2.992-1.736 2.992H8.446c-1.535 0-2.498-1.659-1.736-2.992L7.286 17m7.873-6.222L14.36 9.38a1.567 1.567 0 0 0-2.72 0v0m3.519 1.398h.063C16.204 10.778 17 9.982 17 9v-.612c0-.644-.522-1.166-1.166-1.166h-.229c-.38 0-.71-.255-.856-.606v0c-.146-.352-.09-.76.179-1.03l.161-.161a1.166 1.166 0 0 0 0-1.65l-.865-.864a1.166 1.166 0 0 0-1.649 0l-.161.161c-.27.27-.678.325-1.03.179v0c-.351-.146-.606-.476-.606-.857v-.228c0-.644-.522-1.166-1.166-1.166H8.388c-.644 0-1.166.522-1.166 1.166v.228c0 .38-.255.711-.606.857v0c-.352.146-.76.09-1.03-.179l-.161-.161a1.166 1.166 0 0 0-1.65 0l-.864.865a1.166 1.166 0 0 0 0 1.649l.161.161c.27.27.325.678.179 1.03v0c-.146.351-.476.606-.857.606h-.228C1.522 7.222 1 7.744 1 8.388v1.224c0 .644.522 1.166 1.166 1.166h.228c.38 0 .711.255.857.606v0c.146.352.09.76-.179 1.03l-.161.161a1.166 1.166 0 0 0 0 1.65l.865.864a1.166 1.166 0 0 0 1.649 0l.161-.161c.27-.27.678-.325 1.03-.179v0c.351.146.606.476.606.856v1.331c0 .036.029.064.064.064v0m0 0 3.382-5.92m0 0a2.667 2.667 0 1 1 .971-1.7m-.97 1.7.97-1.7"/></svg>