<svg width="94" height="22" viewBox="0 0 94 22" fill="#2C2F7A" xmlns="http://www.w3.org/2000/svg"><path d="M12.501 21.917c-1.006 0-1.862-.489-2.359-1.345l-5.637-9.495v8.602c0 1.215-1.04 2.238-2.267 2.238C1.01 21.917 0 20.89 0 19.679V3.925c0-1.278 1.036-2.238 2.41-2.238 1.001 0 1.828.476 2.33 1.344l5.69 9.775v-1.361c0-.209.171-.38.38-.38s.38.171.38.38v2.572c0 .209-.171.38-.38.38h-.113a.38.38 0 0 1-.325-.188L4.088 3.416c-.368-.635-.944-.97-1.675-.97-.972 0-1.649.61-1.649 1.483v15.754c0 .802.677 1.482 1.482 1.482.806 0 1.512-.676 1.512-1.482V9.846c0-.21.171-.38.38-.38h.083a.38.38 0 0 1 .326.183l6.259 10.543c.363.627.964.969 1.703.969 1.086 0 1.65-.747 1.65-1.482V14.15a.38.38 0 1 1 .76 0v5.528c0 1.085-.844 2.238-2.41 2.238z"/><path d="M17.048 22c-.326 0-.693-.017-1.069-.046a.38.38 0 1 1 .063-.756c.355.03.705.042 1.01.042 3.712 0 6.3-2.196 6.3-5.344s-2.567-4.451-5.427-5.595c-2.292-.927-3.679-1.487-3.679-3.14 0-.856.393-2.297 3.027-2.297.773 0 1.633.13 2.368.355a.38.38 0 0 1 .263.3l.171 1.045c.113.864.64 1.373 1.403 1.373.401 0 .735-.133.952-.371.247-.276.343-.714.28-1.265l-.113-1.22c-.12-1.094-.622-1.695-1.787-2.133-.96-.38-2.204-.597-3.415-.597-3.758 0-6.188 1.996-6.188 5.09 0 2.926 2.1 4.012 5.064 5.231l.088.034c2.226.914 3.983 1.632 3.983 3.499 0 1.536-1.256 2.492-3.281 2.492-.268 0-.59-.016-.915-.041a.373.373 0 0 1-.342-.41.37.37 0 0 1 .409-.342c.3.025.605.042.848.042 1.603 0 2.526-.635 2.526-1.737 0-1.299-1.203-1.854-3.512-2.798l-.087-.037c-2.593-1.065-5.533-2.272-5.533-5.93S13.182 1.6 17.403 1.6c1.303 0 2.647.234 3.691.647 1.432.543 2.113 1.37 2.267 2.764l.113 1.22c.113.964-.192 1.536-.468 1.845-.359.405-.897.626-1.515.626-1.144 0-1.992-.793-2.15-2.02l-.13-.794a7.7 7.7 0 0 0-1.92-.259c-2.272 0-2.272 1.157-2.272 1.537 0 1.056.78 1.461 3.202 2.438 2.986 1.194 5.9 2.664 5.9 6.297S21.22 22 17.061 22z"/><path d="M28.973 22c-1.845 0-3.436-.468-4.722-1.395a.38.38 0 0 1 .442-.617c1.157.83 2.597 1.252 4.284 1.252s3.967-.413 5.086-1.173c.584-.405.71-.881.71-1.211 0-.58-.314-1.257-1.199-1.257-.396 0-.776.155-1.215.334q-.18.076-.367.146c-.902.351-1.8.53-2.672.53-3.261 0-4.92-2.242-4.92-6.663s1.671-6.973 4.577-6.973c1.002 0 2.088.263 2.76.676a.37.37 0 0 1 .175.263l.197 1.24c.13.856.639 1.345 1.403 1.345.271 0 .651-.059.914-.342.25-.272.36-.702.313-1.278l-.058-.965c-.096-1.373-.698-2.233-1.942-2.776-.814-.384-2.259-.785-3.908-.785-1.54 0-2.877.38-3.97 1.123a.377.377 0 0 1-.527-.1.377.377 0 0 1 .1-.526c1.224-.835 2.702-1.257 4.397-1.257 1.486 0 3.102.326 4.221.852 1.487.647 2.272 1.766 2.389 3.415l.058.965c.063.789-.113 1.41-.514 1.845-.354.384-.864.585-1.47.585-1.143 0-1.966-.76-2.15-1.988l-.167-1.056c-.567-.292-1.432-.48-2.22-.48-3.325 0-3.821 3.895-3.821 6.217 0 3.975 1.36 5.908 4.158 5.908.785 0 1.57-.159 2.401-.48.121-.046.238-.096.355-.142.472-.192.956-.393 1.503-.393 1.153 0 1.959.827 1.959 2.013 0 .718-.368 1.37-1.036 1.833-1.407.96-4.071 1.307-5.516 1.307zM40.009 2.23c0-.272.208-.497.542-.497.234 0 .422.113.535.309l1.678 2.88h.03V2.23a.5.5 0 0 1 .496-.497.5.5 0 0 1 .497.497v4.2c0 .255-.204.497-.543.497a.61.61 0 0 1-.542-.309l-1.67-2.81h-.021V6.43a.51.51 0 0 1-.506.497.5.5 0 0 1-.497-.497zm5.82.3c.167-.584.443-.797.948-.797.543 0 .78.204.956.797l1.069 3.746a.506.506 0 0 1-.476.656.48.48 0 0 1-.472-.36l-.234-.881h-1.682l-.234.881a.485.485 0 0 1-.472.36.5.5 0 0 1-.497-.498c0-.046 0-.083.02-.158zm.167-1.595c0-.13.075-.254.196-.321l.969-.51A.6.6 0 0 1 47.445 0c.263 0 .443.255.443.48 0 .171-.097.322-.285.397l-1.06.422a.5.5 0 0 1-.159.037.39.39 0 0 1-.392-.397zm.159 3.934h1.256l-.592-2.247h-.067l-.593 2.247zm4.601 1.561a.5.5 0 0 1-1.002 0V2.28c0-.271.217-.497.497-.497h1.277c.97 0 1.758.677 1.758 1.662 0 .63-.346 1.073-.827 1.307l.836 1.382c.045.075.112.205.112.309 0 .284-.233.48-.505.48a.53.53 0 0 1-.43-.263l-.96-1.662a4 4 0 0 1-.33.009h-.43v1.42zm0-2.196h.714c.489 0 .827-.309.827-.789s-.338-.78-.827-.78h-.714zm3.444.1c0-1.382.585-2.622 2.088-2.622s2.092 1.24 2.092 2.622-.584 2.618-2.092 2.618c-1.507 0-2.087-1.22-2.087-2.618m3.186 0c0-.79-.242-1.72-1.098-1.72s-1.098.93-1.098 1.72c0 .902.293 1.716 1.098 1.716s1.099-.81 1.099-1.716m2.102-2.05c0-.271.218-.497.498-.497h.947c1.353 0 2.301.656 2.301 2.547s-1.052 2.543-2.309 2.543h-.94a.49.49 0 0 1-.496-.497zm1.429 3.708c.827 0 1.323-.355 1.323-1.654s-.488-1.67-1.306-1.67h-.443v3.324h.43zm3.428-3.762c0-.272.209-.497.543-.497.233 0 .421.113.534.309l1.674 2.88h.03V2.23a.5.5 0 0 1 .496-.497.5.5 0 0 1 .497.497v4.2c0 .255-.204.497-.542.497a.61.61 0 0 1-.543-.309l-1.67-2.81h-.021V6.43a.51.51 0 0 1-.505.497.5.5 0 0 1-.497-.497v-4.2zm5.186 3.758h.48V2.664h-.48a.44.44 0 0 1-.443-.434c0-.238.205-.443.443-.443h1.954a.438.438 0 1 1 0 .877h-.48v3.323h.48c.242 0 .442.205.442.443a.45.45 0 0 1-.442.443h-1.954a.45.45 0 0 1-.443-.443.45.45 0 0 1 .443-.442m.196-5.053c0-.13.075-.254.196-.321l.969-.51A.6.6 0 0 1 71.178 0c.263 0 .442.255.442.48a.42.42 0 0 1-.284.397l-1.06.422a.5.5 0 0 1-.159.037.39.39 0 0 1-.392-.397zM41.512 13.587c.505 0 .772-.226.772-.564 0-.434-.434-.61-1.023-.847-.714-.293-1.415-.602-1.415-1.487 0-.835.626-1.457 1.753-1.457.31 0 .66.054.948.167.338.13.505.317.543.656l.03.321c.045.393-.18.547-.43.547-.251 0-.435-.167-.473-.451l-.046-.28a2.2 2.2 0 0 0-.6-.092c-.49 0-.706.197-.706.51 0 .359.283.488.918.743.752.3 1.511.66 1.511 1.587s-.734 1.528-1.782 1.528c-.301 0-.773-.054-1.099-.167-.359-.13-.526-.322-.555-.693l-.02-.347c-.03-.413.204-.547.421-.547.242 0 .451.167.48.451l.038.318c.209.075.547.104.735.104m4.768-3.457c-.827 0-1.119.81-1.119 1.757 0 .948.3 1.679 1.21 1.679.272 0 .506-.067.677-.134.159-.058.3-.133.46-.133.27 0 .421.196.421.434 0 .133-.058.284-.234.405-.33.225-.985.33-1.41.33-1.466 0-2.114-1.149-2.114-2.602s.602-2.638 2.076-2.638c.421 0 .826.096 1.081.217.346.15.547.396.58.826l.017.255c.03.393-.18.543-.43.543-.234 0-.43-.142-.472-.443l-.054-.33c-.171-.104-.451-.167-.685-.167zm3.645 3.816a.5.5 0 0 1-1.002 0v-4.15c0-.272.217-.497.497-.497h1.277c.97 0 1.758.676 1.758 1.662 0 .63-.346 1.073-.826 1.306l.835 1.383c.046.075.112.204.112.309 0 .284-.233.48-.505.48a.53.53 0 0 1-.43-.263l-.96-1.662c-.113.008-.209.008-.33.008h-.43v1.42zm0-2.196h.714c.489 0 .827-.31.827-.79s-.338-.78-.827-.78h-.714zm3.687-1.95c0-.284.209-.497.497-.497h2.284a.44.44 0 0 1 .442.442.433.433 0 0 1-.442.435H54.61v1.148h1.361c.242 0 .443.196.443.434a.45.45 0 0 1-.443.443H54.61v1.294h1.79a.45.45 0 0 1 .443.443.45.45 0 0 1-.443.442h-2.29a.49.49 0 0 1-.497-.497V9.791zm4.263 0c0-.284.209-.497.497-.497h2.284a.44.44 0 0 1 .442.442.433.433 0 0 1-.442.435h-1.783v1.148h1.361c.242 0 .443.196.443.434a.45.45 0 0 1-.443.443h-1.361v1.294h1.791a.45.45 0 0 1 .443.443.45.45 0 0 1-.443.442h-2.292a.49.49 0 0 1-.497-.497V9.791zm4.259-.055c0-.271.209-.496.543-.496.233 0 .421.112.534.309l1.674 2.88h.03V9.746a.5.5 0 0 1 .497-.496.5.5 0 0 1 .496.496v4.2c0 .255-.204.498-.542.498a.61.61 0 0 1-.543-.31l-1.67-2.81h-.021v2.623a.5.5 0 0 1-1.002 0v-4.2zm5.186 3.758h.48V10.18h-.48a.44.44 0 0 1-.443-.435.45.45 0 0 1 .443-.442h1.954a.438.438 0 1 1 0 .877h-.48v3.323h.48c.242 0 .442.205.442.443a.45.45 0 0 1-.442.442H67.32a.45.45 0 0 1-.443-.442c0-.238.205-.443.443-.443m3.37-3.758c0-.271.208-.496.542-.496.234 0 .422.112.534.309l1.679 2.88h.03V9.746a.5.5 0 0 1 .496-.496.5.5 0 0 1 .497.496v4.2c0 .255-.205.498-.543.498a.61.61 0 0 1-.543-.31l-1.67-2.81h-.02v2.623a.5.5 0 0 1-1.002 0zm7.757 2.723h-.51a.44.44 0 0 1-.45-.434c0-.238.188-.443.45-.443h1.053c.225 0 .405.18.405.413v1.52c0 .338-.142.535-.384.668-.322.188-.81.28-1.24.28-1.558 0-2.205-1.156-2.205-2.601s.622-2.64 2.142-2.64c.36 0 .985.076 1.361.322.159.105.247.226.247.405 0 .226-.15.46-.43.46-.15 0-.284-.075-.443-.142a1.7 1.7 0 0 0-.668-.142c-.948 0-1.22.873-1.22 1.737 0 .94.322 1.7 1.25 1.7.208 0 .47-.047.638-.122v-.977zm1.908-.618c0-1.382.585-2.622 2.088-2.622s2.092 1.24 2.092 2.622-.585 2.618-2.092 2.618-2.088-1.22-2.088-2.618m3.186 0c0-.79-.242-1.72-1.098-1.72s-1.098.93-1.098 1.72c0 .902.292 1.716 1.098 1.716s1.098-.81 1.098-1.716m4.568 1.795c-.15.585-.451.798-.923.798-.442 0-.78-.218-.93-.798L85.248 9.9c-.021-.075-.021-.113-.021-.159 0-.271.217-.497.497-.497.225 0 .434.15.488.355l.969 3.954h.038l.968-3.954a.464.464 0 0 1 .46-.355c.28 0 .496.226.496.497 0 .046 0 .084-.02.159l-1.007 3.745zM90.126 9.8c0-.284.208-.497.496-.497h2.284a.44.44 0 0 1 .443.442.433.433 0 0 1-.443.435h-1.782v1.148h1.36a.44.44 0 0 1 .443.434.45.45 0 0 1-.442.443h-1.361v1.294h1.79c.243 0 .443.205.443.443a.45.45 0 0 1-.442.442h-2.293a.49.49 0 0 1-.496-.497V9.792zm.843-1.345c0-.13.075-.254.196-.321l.969-.51a.6.6 0 0 1 .284-.104c.263 0 .442.255.442.48a.42.42 0 0 1-.283.397l-1.061.422a.5.5 0 0 1-.159.037.39.39 0 0 1-.392-.397zm-49.036 9.19c-.826 0-1.119.81-1.119 1.758s.301 1.678 1.211 1.678c.272 0 .505-.066.677-.133.158-.059.3-.134.459-.134.271 0 .422.196.422.434 0 .134-.059.284-.234.405-.33.226-.986.33-1.411.33-1.466 0-2.113-1.148-2.113-2.601s.601-2.639 2.075-2.639c.422 0 .827.096 1.081.217.347.15.547.397.58.827l.017.255c.03.392-.18.542-.43.542-.233 0-.43-.142-.471-.442l-.055-.33c-.17-.104-.45-.167-.684-.167zm2.647-.33c0-.284.21-.497.497-.497h2.284a.44.44 0 0 1 .443.443.433.433 0 0 1-.443.434H45.58v1.148h1.36c.243 0 .443.197.443.435a.45.45 0 0 1-.442.442H45.58v1.295h1.79c.243 0 .443.204.443.442a.45.45 0 0 1-.442.443h-2.293a.49.49 0 0 1-.496-.497v-4.096zm4.26-.054c0-.271.208-.497.542-.497.234 0 .422.113.535.31l1.678 2.88h.03v-2.693a.5.5 0 0 1 .496-.497.5.5 0 0 1 .497.497v4.2c0 .255-.204.497-.543.497a.61.61 0 0 1-.542-.309l-1.67-2.81h-.021v2.623a.5.5 0 0 1-1.002 0zm5.97.434h-.902a.44.44 0 0 1-.442-.434.45.45 0 0 1 .442-.443h2.798a.438.438 0 1 1 0 .877h-.902v3.766c0 .28-.209.497-.497.497a.485.485 0 0 1-.497-.497zm4.184 3.767a.5.5 0 0 1-1.002 0v-4.15c0-.272.217-.498.497-.498h1.277c.97 0 1.758.677 1.758 1.662 0 .63-.346 1.073-.827 1.307l.836 1.382c.045.075.112.205.112.31 0 .283-.234.48-.505.48a.53.53 0 0 1-.43-.264l-.96-1.662c-.113.009-.21.009-.33.009h-.43v1.42zm0-2.197h.714c.489 0 .827-.309.827-.789s-.338-.78-.827-.78h-.714zm3.628-2.004a.496.496 0 1 1 .994 0v2.835c0 .535.263.985.865.985.6 0 .864-.45.864-.985v-2.835a.5.5 0 0 1 .497-.497.5.5 0 0 1 .496.497v2.818c0 1.023-.61 1.904-1.857 1.904-1.249 0-1.859-.88-1.859-1.904zm4.986.009a.5.5 0 0 1 .488-.506c.272 0 .435.105.543.317l1.144 2.264h.017l1.144-2.264c.104-.208.284-.317.534-.317.28 0 .497.234.497.505v4.197a.5.5 0 0 1-1.002 0V18.91h-.046l-.61 1.249a.57.57 0 0 1-.525.338.57.57 0 0 1-.527-.338l-.618-1.249h-.037v2.556a.51.51 0 0 1-.505.496.495.495 0 0 1-.497-.496z"/></svg>