<svg width="16" height="22" viewBox="0 0 16 22" fill="none" stroke="currentColor" stroke-linecap="square" xmlns="http://www.w3.org/2000/svg"><path d="M9 2a1 1 0 0 1-2 0m2 0a1 1 0 0 0-2 0m2 0h2.11a2 2 0 0 1 1.486.66l.96 1.067a2 2 0 0 1 .475.943l.93 4.6a2 2 0 0 1 .039.397v5.184a1.53 1.53 0 0 1-.936 1.41v0a1.54 1.54 0 0 0-.81.803v0A1.56 1.56 0 0 1 11.83 18H4.17c-.617 0-1.178-.37-1.424-.936v0a1.54 1.54 0 0 0-.81-.802v0A1.53 1.53 0 0 1 1 14.85V9.668a2 2 0 0 1 .04-.396l.929-4.601a2 2 0 0 1 .474-.943l.961-1.066A2 2 0 0 1 4.89 2H7M2 19l.5 2M14 19l-.5 2M12 13a1 1 0 1 1-2 0 1 1 0 0 1 2 0Zm-6 0a1 1 0 1 1-2 0 1 1 0 0 1 2 0Zm2.199-3.48 2.34.234a1.974 1.974 0 0 0 2.154-2.209v0a1.974 1.974 0 0 0-1.74-1.717L8.22 5.525a2 2 0 0 0-.442 0l-2.732.303c-.907.1-1.627.811-1.74 1.717v0a1.974 1.974 0 0 0 2.155 2.209L7.8 9.52a2 2 0 0 1 .398 0Z"/></svg>