<svg width="101" height="24" viewBox="0 0 101 24" fill="none" xmlns="http://www.w3.org/2000/svg">
<g clip-path="url(#clip0_653_6998)">
<path d="M13.5533 23.909C12.4647 23.909 11.5388 23.3761 11.0013 22.4423L4.90342 12.0844V21.4675C4.90342 22.793 3.77871 23.909 2.45073 23.909C1.12276 23.909 0.0296631 22.7885 0.0296631 21.4675V4.28178C0.0296631 2.88797 1.14986 1.84033 2.63593 1.84033C3.71999 1.84033 4.61433 2.35959 5.15636 3.30702L11.3129 13.9701V12.4852C11.3129 12.2575 11.4981 12.0707 11.724 12.0707C11.9498 12.0707 12.135 12.2575 12.135 12.4852V15.291C12.135 15.5188 11.9498 15.7055 11.724 15.7055H11.602C11.4575 15.7055 11.322 15.6281 11.2497 15.5006L4.45172 3.72607C4.05424 3.03372 3.4309 2.66933 2.64044 2.66933C1.588 2.66933 0.856258 3.33435 0.856258 4.28633V21.4721C0.856258 22.3466 1.588 23.0891 2.45976 23.0891C3.33153 23.0891 4.09489 22.3512 4.09489 21.4721V10.7407C4.09489 10.5129 4.28008 10.3262 4.50593 10.3262H4.59627C4.74081 10.3262 4.87632 10.4036 4.94859 10.5266L11.7194 22.0278C12.1124 22.711 12.7629 23.0845 13.5623 23.0845C14.7367 23.0845 15.3465 22.2692 15.3465 21.4675V15.4368C15.3465 15.2091 15.5317 15.0223 15.7576 15.0223C15.9834 15.0223 16.1686 15.2091 16.1686 15.4368V21.4675C16.1686 22.6518 15.2562 23.909 13.5623 23.909H13.5533Z" fill="#2C2F7A"/>
<path d="M18.4722 23.9995C18.1199 23.9995 17.7224 23.9813 17.3159 23.9494C17.0901 23.9312 16.9229 23.7308 16.941 23.5031C16.9591 23.2753 17.1578 23.1068 17.3837 23.125C17.7676 23.1569 18.147 23.1705 18.4768 23.1705C22.4923 23.1705 25.2928 20.7746 25.2928 17.3402C25.2928 13.9058 22.5149 12.4847 19.4208 11.2366C16.941 10.2254 15.4414 9.61506 15.4414 7.81131C15.4414 6.87755 15.866 5.3061 18.7162 5.3061C19.5518 5.3061 20.4823 5.4473 21.2773 5.69327C21.4263 5.73882 21.5347 5.86635 21.5618 6.02122L21.747 7.15996C21.869 8.10283 22.4381 8.65853 23.2647 8.65853C23.6983 8.65853 24.0597 8.51277 24.2946 8.25314C24.5611 7.95251 24.6649 7.47425 24.5972 6.87299L24.4752 5.54295C24.3442 4.34956 23.8022 3.69365 22.542 3.21538C21.5031 2.80088 20.1571 2.56403 18.8471 2.56403C14.7819 2.56403 12.1531 4.74129 12.1531 8.11649C12.1531 11.3095 14.4251 12.4938 17.6321 13.8238L17.727 13.8603C20.1345 14.8578 22.0361 15.6412 22.0361 17.6773C22.0361 19.3535 20.6765 20.3966 18.4858 20.3966C18.1967 20.3966 17.8489 20.3784 17.4966 20.351C17.2707 20.3328 17.1036 20.1324 17.1262 19.9047C17.1443 19.6769 17.343 19.5038 17.5689 19.5312C17.8941 19.5585 18.2238 19.5767 18.4858 19.5767C20.2203 19.5767 21.2185 18.8844 21.2185 17.6818C21.2185 16.2653 19.9177 15.6595 17.4198 14.63L17.3249 14.5891C14.5199 13.4275 11.34 12.1112 11.34 8.12105C11.34 4.13093 14.2896 1.74414 18.8562 1.74414C20.2655 1.74414 21.7199 1.99922 22.8491 2.45015C24.3984 3.0423 25.1347 3.94417 25.3018 5.46552L25.4238 6.79556C25.5457 7.84775 25.216 8.47178 24.9179 8.80884C24.5294 9.25067 23.9467 9.49208 23.2782 9.49208C22.0406 9.49208 21.1237 8.62664 20.952 7.28749L20.812 6.42206C20.1525 6.24441 19.4072 6.13965 18.7342 6.13965C16.277 6.13965 16.277 7.40137 16.277 7.81586C16.277 8.96826 17.1217 9.41009 19.7415 10.4759C22.9711 11.7787 26.1239 13.382 26.1239 17.3448C26.1239 21.3076 22.9846 23.9995 18.4858 23.9995H18.4722Z" fill="#2C2F7A"/>
<path d="M31.3726 23.9999C29.3761 23.9999 27.6552 23.4897 26.2639 22.4785C26.0787 22.3464 26.0381 22.0868 26.1691 21.9C26.3001 21.7133 26.5575 21.6723 26.7427 21.8044C27.9939 22.7108 29.5523 23.1709 31.3771 23.1709C33.2019 23.1709 35.6682 22.7199 36.8787 21.8909C37.5111 21.4491 37.6466 20.9298 37.6466 20.57C37.6466 19.9369 37.3078 19.199 36.3502 19.199C35.9211 19.199 35.5101 19.3675 35.0358 19.5634C34.9048 19.618 34.7738 19.6727 34.6383 19.7228C33.6627 20.1054 32.6915 20.3013 31.7475 20.3013C28.2198 20.3013 26.4265 17.8553 26.4265 13.0316C26.4265 8.20791 28.2333 5.42485 31.3771 5.42485C32.4612 5.42485 33.6356 5.71181 34.3628 6.16275C34.4667 6.22652 34.5344 6.33128 34.5525 6.44971L34.7648 7.80252C34.9048 8.73628 35.4559 9.26921 36.2825 9.26921C36.5761 9.26921 36.9871 9.20544 37.2717 8.89571C37.5427 8.59963 37.6601 8.13048 37.6104 7.5019L37.5472 6.44971C37.4433 4.95113 36.7929 4.01282 35.4468 3.42068C34.566 3.00162 33.0032 2.56435 31.219 2.56435C29.5523 2.56435 28.1068 2.97885 26.9234 3.78963C26.7382 3.91716 26.4808 3.87161 26.3543 3.68031C26.2278 3.49356 26.273 3.23392 26.4627 3.10639C27.7861 2.1954 29.3851 1.73535 31.219 1.73535C32.827 1.73535 34.5751 2.09064 35.7856 2.66456C37.3936 3.37057 38.2428 4.59129 38.3693 6.39049L38.4325 7.44268C38.5003 8.30356 38.3106 8.98225 37.8769 9.45596C37.493 9.87502 36.9419 10.0937 36.287 10.0937C35.0493 10.0937 34.1595 9.26465 33.9608 7.9255L33.7801 6.77311C33.1658 6.45426 32.2308 6.24929 31.3771 6.24929C27.7816 6.24929 27.2441 10.499 27.2441 13.0316C27.2441 17.3679 28.7166 19.4768 31.743 19.4768C32.5921 19.4768 33.4413 19.3037 34.3402 18.953C34.4712 18.9029 34.5977 18.8482 34.7241 18.7981C35.2345 18.5886 35.7585 18.37 36.3502 18.37C37.5969 18.37 38.4687 19.2718 38.4687 20.5654C38.4687 21.3489 38.0712 22.0595 37.3485 22.5651C35.8263 23.6127 32.9445 23.9907 31.3816 23.9907L31.3726 23.9999Z" fill="#2C2F7A"/>
<path d="M43.3108 2.43217C43.3108 2.1361 43.5366 1.89014 43.898 1.89014C44.1509 1.89014 44.3542 2.01312 44.4762 2.2272L46.292 5.3701H46.3236V2.43217C46.3236 2.1361 46.5675 1.89014 46.8611 1.89014C47.1547 1.89014 47.3986 2.1361 47.3986 2.43217V7.01443C47.3986 7.29229 47.1773 7.55647 46.8114 7.55647C46.5585 7.55647 46.3462 7.43349 46.2242 7.21941L44.4174 4.15394H44.3949V7.01443C44.3949 7.3014 44.1509 7.55647 43.8483 7.55647C43.5457 7.55647 43.3108 7.3014 43.3108 7.01443V2.43217Z" fill="#2C2F7A"/>
<path d="M49.6074 2.76029C49.7881 2.1226 50.0862 1.8903 50.6327 1.8903C51.2199 1.8903 51.4774 2.11349 51.6671 2.76029L52.8234 6.84606C52.846 6.92805 52.846 6.96905 52.846 7.01915C52.846 7.30611 52.6021 7.56119 52.3085 7.56119C52.0646 7.56119 51.8523 7.39721 51.7981 7.16946L51.5451 6.20837H49.7248L49.4719 7.16946C49.4132 7.39721 49.2054 7.56119 48.9615 7.56119C48.6588 7.56119 48.424 7.30611 48.424 7.01915C48.424 6.96905 48.424 6.92805 48.4465 6.84606L49.6074 2.76029ZM49.7881 1.0203C49.7881 0.879102 49.8694 0.742454 50.0004 0.669575L51.0483 0.113873C51.1522 0.0501043 51.2606 0 51.3554 0C51.64 0 51.8342 0.277851 51.8342 0.523817C51.8342 0.710569 51.7303 0.874547 51.5271 0.956536L50.3798 1.41658C50.3301 1.4348 50.2669 1.45758 50.2081 1.45758C49.9642 1.45758 49.7835 1.26172 49.7835 1.02486L49.7881 1.0203ZM49.9597 5.31105H51.3193L50.6779 2.8605H50.6056L49.9642 5.31105H49.9597Z" fill="#2C2F7A"/>
<path d="M54.9374 7.01446C54.9374 7.30142 54.6935 7.5565 54.3908 7.5565C54.0882 7.5565 53.8533 7.30142 53.8533 7.01446V2.48686C53.8533 2.19079 54.0882 1.94482 54.3908 1.94482H55.773C56.8209 1.94482 57.6746 2.68272 57.6746 3.75769C57.6746 4.44548 57.2997 4.92831 56.7803 5.18338L57.6837 6.69106C57.7334 6.77305 57.8056 6.91426 57.8056 7.02813C57.8056 7.33786 57.5527 7.55195 57.2591 7.55195C57.0558 7.55195 56.8751 7.40619 56.7938 7.26499L55.755 5.45212C55.633 5.46123 55.5291 5.46123 55.3981 5.46123H54.9329V7.00991L54.9374 7.01446ZM54.9374 4.61857H55.7098C56.2383 4.61857 56.6041 4.2815 56.6041 3.75769C56.6041 3.23387 56.2383 2.90592 55.7098 2.90592H54.9374V4.61857Z" fill="#2C2F7A"/>
<path d="M58.6638 4.72817C58.6638 3.22049 59.2962 1.86768 60.9223 1.86768C62.5484 1.86768 63.1853 3.22049 63.1853 4.72817C63.1853 6.23585 62.5529 7.58412 60.9223 7.58412C59.2917 7.58412 58.6638 6.25407 58.6638 4.72817ZM62.1102 4.72817C62.1102 3.86729 61.8482 2.85154 60.9223 2.85154C59.9963 2.85154 59.7343 3.86729 59.7343 4.72817C59.7343 5.71204 60.0505 6.60025 60.9223 6.60025C61.794 6.60025 62.1102 5.71659 62.1102 4.72817Z" fill="#2C2F7A"/>
<path d="M64.3867 2.49174C64.3867 2.19567 64.6216 1.94971 64.9242 1.94971H65.9496C67.4131 1.94971 68.4384 2.66483 68.4384 4.72822C68.4384 6.7916 67.3001 7.50217 65.9405 7.50217H64.9242C64.6216 7.50217 64.3867 7.26531 64.3867 6.96013V2.49174ZM65.9315 6.53652C66.8259 6.53652 67.3634 6.14935 67.3634 4.73277C67.3634 3.31619 66.8349 2.9108 65.9496 2.9108H65.4708V6.53652H65.936H65.9315Z" fill="#2C2F7A"/>
<path d="M69.6399 2.43217C69.6399 2.1361 69.8657 1.89014 70.2271 1.89014C70.48 1.89014 70.6833 2.01312 70.8053 2.2272L72.6165 5.3701H72.6482V2.43217C72.6482 2.1361 72.8921 1.89014 73.1857 1.89014C73.4793 1.89014 73.7232 2.1361 73.7232 2.43217V7.01443C73.7232 7.29229 73.5019 7.55647 73.136 7.55647C72.883 7.55647 72.6707 7.43349 72.5488 7.21941L70.742 4.15394H70.7194V7.01443C70.7194 7.3014 70.4755 7.55647 70.1729 7.55647C69.8703 7.55647 69.6354 7.3014 69.6354 7.01443V2.43217H69.6399Z" fill="#2C2F7A"/>
<path d="M75.2499 6.53177H75.7694V2.90605H75.2499C74.9879 2.90605 74.7711 2.69196 74.7711 2.43233C74.7711 2.1727 74.9924 1.94951 75.2499 1.94951H77.3638C77.6258 1.94951 77.8426 2.16359 77.8426 2.43233C77.8426 2.70107 77.6213 2.90605 77.3638 2.90605H76.8444V6.53177H77.3638C77.6258 6.53177 77.8426 6.75496 77.8426 7.0146C77.8426 7.27423 77.6213 7.49742 77.3638 7.49742H75.2499C74.9879 7.49742 74.7711 7.27423 74.7711 7.0146C74.7711 6.75496 74.9924 6.53177 75.2499 6.53177ZM75.4622 1.0203C75.4622 0.879102 75.5435 0.742454 75.6745 0.669575L76.7224 0.113873C76.8263 0.0501043 76.9347 0 77.0296 0C77.3141 0 77.5084 0.277851 77.5084 0.523817C77.5084 0.710569 77.4045 0.874547 77.2012 0.956536L76.0539 1.41658C76.0042 1.4348 75.941 1.45758 75.8823 1.45758C75.6384 1.45758 75.4577 1.26172 75.4577 1.02486L75.4622 1.0203Z" fill="#2C2F7A"/>
<path d="M44.9369 14.8221C45.4834 14.8221 45.7725 14.5761 45.7725 14.2072C45.7725 13.7335 45.3028 13.5421 44.6659 13.2825C43.8935 12.9637 43.1346 12.6266 43.1346 11.661C43.1346 10.75 43.8122 10.0713 45.0318 10.0713C45.366 10.0713 45.7454 10.1305 46.0571 10.2535C46.423 10.3947 46.6036 10.5997 46.6443 10.9686L46.6759 11.3193C46.7256 11.7475 46.4817 11.916 46.2107 11.916C45.9397 11.916 45.7409 11.7338 45.7003 11.4241L45.6506 11.1189C45.4383 11.0552 45.2034 11.0187 45.0001 11.0187C44.4717 11.0187 44.2368 11.2328 44.2368 11.5744C44.2368 11.9661 44.5439 12.1073 45.2305 12.3852C46.0435 12.7132 46.8656 13.1049 46.8656 14.1161C46.8656 15.1273 46.0706 15.7832 44.9369 15.7832C44.6117 15.7832 44.1013 15.724 43.7489 15.601C43.3605 15.4598 43.1798 15.2502 43.1482 14.8449L43.1256 14.4668C43.094 14.0159 43.3469 13.8701 43.5818 13.8701C43.8438 13.8701 44.0696 14.0523 44.1013 14.362L44.1419 14.7082C44.3678 14.7902 44.7336 14.8221 44.9369 14.8221Z" fill="#2C2F7A"/>
<path d="M50.0952 11.0503C49.2008 11.0503 48.8847 11.9339 48.8847 12.9679C48.8847 14.0019 49.2099 14.799 50.1946 14.799C50.4882 14.799 50.7411 14.7261 50.9263 14.6532C51.0979 14.5895 51.2515 14.5075 51.4232 14.5075C51.7168 14.5075 51.8794 14.7215 51.8794 14.9812C51.8794 15.1269 51.8161 15.2909 51.6264 15.423C51.2696 15.669 50.5604 15.7828 50.0997 15.7828C48.5143 15.7828 47.8141 14.5302 47.8141 12.9451C47.8141 11.36 48.4646 10.0664 50.0591 10.0664C50.5153 10.0664 50.9534 10.1712 51.2289 10.3033C51.6038 10.4672 51.8207 10.736 51.8568 11.2051L51.8749 11.483C51.9065 11.9112 51.6806 12.0751 51.4096 12.0751C51.1567 12.0751 50.9444 11.9203 50.8992 11.5923L50.8405 11.2325C50.6553 11.1186 50.3527 11.0503 50.0997 11.0503H50.0952Z" fill="#2C2F7A"/>
<path d="M54.0385 15.2137C54.0385 15.5006 53.7946 15.7557 53.492 15.7557C53.1893 15.7557 52.9545 15.5006 52.9545 15.2137V10.6861C52.9545 10.39 53.1893 10.144 53.492 10.144H54.8742C55.9221 10.144 56.7758 10.8819 56.7758 11.9569C56.7758 12.6447 56.4009 13.1275 55.8814 13.3826L56.7848 14.8903C56.8345 14.9723 56.9068 15.1135 56.9068 15.2273C56.9068 15.5371 56.6538 15.7512 56.3602 15.7512C56.157 15.7512 55.9763 15.6054 55.895 15.4642L54.8561 13.6513C54.7341 13.6605 54.6302 13.6605 54.4993 13.6605H54.034V15.2091L54.0385 15.2137ZM54.0385 12.8178H54.8109C55.3394 12.8178 55.7053 12.4807 55.7053 11.9569C55.7053 11.4331 55.3394 11.1051 54.8109 11.1051H54.0385V12.8178Z" fill="#2C2F7A"/>
<path d="M58.0269 10.6905C58.0269 10.3807 58.2528 10.1484 58.5644 10.1484H61.0352C61.3017 10.1484 61.514 10.3625 61.514 10.6313C61.514 10.9 61.3017 11.105 61.0352 11.105H59.1065V12.3576H60.579C60.841 12.3576 61.0578 12.5717 61.0578 12.8313C61.0578 13.0909 60.8364 13.3141 60.579 13.3141H59.1065V14.7261H61.0442C61.3062 14.7261 61.523 14.9493 61.523 15.209C61.523 15.4686 61.3017 15.6918 61.0442 15.6918H58.5644C58.2573 15.6918 58.0269 15.4549 58.0269 15.1498V10.6814V10.6905Z" fill="#2C2F7A"/>
<path d="M62.6387 10.6905C62.6387 10.3807 62.8645 10.1484 63.1762 10.1484H65.6469C65.9134 10.1484 66.1257 10.3625 66.1257 10.6313C66.1257 10.9 65.9134 11.105 65.6469 11.105H63.7182V12.3576H65.1907C65.4527 12.3576 65.6695 12.5717 65.6695 12.8313C65.6695 13.0909 65.4482 13.3141 65.1907 13.3141H63.7182V14.7261H65.656C65.9179 14.7261 66.1348 14.9493 66.1348 15.209C66.1348 15.4686 65.9134 15.6918 65.656 15.6918H63.1762C62.869 15.6918 62.6387 15.4549 62.6387 15.1498V10.6814V10.6905Z" fill="#2C2F7A"/>
<path d="M67.246 10.6309C67.246 10.3348 67.4718 10.0889 67.8332 10.0889C68.0861 10.0889 68.2894 10.2119 68.4113 10.4259L70.2226 13.5688H70.2542V10.6309C70.2542 10.3348 70.4981 10.0889 70.7917 10.0889C71.0853 10.0889 71.3293 10.3348 71.3293 10.6309V15.2132C71.3293 15.491 71.1079 15.7552 70.7421 15.7552C70.4891 15.7552 70.2768 15.6322 70.1549 15.4181L68.3481 12.3527H68.3255V15.2132C68.3255 15.5001 68.0816 15.7552 67.779 15.7552C67.4763 15.7552 67.2415 15.5001 67.2415 15.2132V10.6309H67.246Z" fill="#2C2F7A"/>
<path d="M72.856 14.7307H73.3754V11.105H72.856C72.594 11.105 72.3772 10.8909 72.3772 10.6313C72.3772 10.3716 72.5985 10.1484 72.856 10.1484H74.9699C75.2319 10.1484 75.4487 10.3625 75.4487 10.6313C75.4487 10.9 75.2274 11.105 74.9699 11.105H74.4505V14.7307H74.9699C75.2319 14.7307 75.4487 14.9539 75.4487 15.2135C75.4487 15.4732 75.2274 15.6963 74.9699 15.6963H72.856C72.594 15.6963 72.3772 15.4732 72.3772 15.2135C72.3772 14.9539 72.5985 14.7307 72.856 14.7307Z" fill="#2C2F7A"/>
<path d="M76.5012 10.6309C76.5012 10.3348 76.727 10.0889 77.0884 10.0889C77.3413 10.0889 77.5446 10.2119 77.6665 10.4259L79.4823 13.5688H79.5139V10.6309C79.5139 10.3348 79.7579 10.0889 80.0515 10.0889C80.3451 10.0889 80.589 10.3348 80.589 10.6309V15.2132C80.589 15.491 80.3676 15.7552 80.0018 15.7552C79.7488 15.7552 79.5365 15.6322 79.4146 15.4181L77.6078 12.3527H77.5852V15.2132C77.5852 15.5001 77.3413 15.7552 77.0387 15.7552C76.736 15.7552 76.5012 15.5001 76.5012 15.2132V10.6309Z" fill="#2C2F7A"/>
<path d="M84.8935 13.6014H84.3425C84.0669 13.6014 83.8546 13.3873 83.8546 13.1276C83.8546 12.868 84.0579 12.6448 84.3425 12.6448H85.4807C85.7246 12.6448 85.9189 12.8407 85.9189 13.0958V14.7538C85.9189 15.1227 85.7653 15.3368 85.5033 15.4825C85.1555 15.6875 84.627 15.7877 84.1618 15.7877C82.477 15.7877 81.7769 14.526 81.7769 12.95C81.7769 11.374 82.4499 10.0713 84.094 10.0713C84.4825 10.0713 85.16 10.1533 85.5666 10.422C85.7382 10.5359 85.833 10.668 85.833 10.8638C85.833 11.1098 85.6704 11.3649 85.3678 11.3649C85.2052 11.3649 85.0607 11.2829 84.889 11.21C84.7174 11.1371 84.4644 11.0552 84.1663 11.0552C83.141 11.0552 82.8474 12.0071 82.8474 12.95C82.8474 13.9749 83.1952 14.8039 84.1979 14.8039C84.4238 14.8039 84.7083 14.7538 84.889 14.6718V13.6059L84.8935 13.6014Z" fill="#2C2F7A"/>
<path d="M86.9578 12.9269C86.9578 11.4192 87.5902 10.0664 89.2163 10.0664C90.8424 10.0664 91.4793 11.4192 91.4793 12.9269C91.4793 14.4346 90.8469 15.7828 89.2163 15.7828C87.5857 15.7828 86.9578 14.4528 86.9578 12.9269ZM90.4042 12.9269C90.4042 12.066 90.1423 11.0503 89.2163 11.0503C88.2903 11.0503 88.0283 12.066 88.0283 12.9269C88.0283 13.9108 88.3445 14.799 89.2163 14.799C90.0881 14.799 90.4042 13.9153 90.4042 12.9269Z" fill="#2C2F7A"/>
<path d="M95.3457 14.8854C95.1831 15.5231 94.8579 15.7554 94.3474 15.7554C93.8686 15.7554 93.5028 15.5185 93.3402 14.8854L92.2516 10.7996C92.229 10.7176 92.229 10.6766 92.229 10.6265C92.229 10.3304 92.4639 10.0845 92.7665 10.0845C93.0104 10.0845 93.2363 10.2484 93.295 10.4716L94.3429 14.7852H94.3836L95.4315 10.4716C95.4812 10.2484 95.6845 10.0845 95.9284 10.0845C96.231 10.0845 96.4659 10.3304 96.4659 10.6265C96.4659 10.6766 96.4659 10.7176 96.4433 10.7996L95.3547 14.8854H95.3457Z" fill="#2C2F7A"/>
<path d="M97.5274 10.6906C97.5274 10.3809 97.7532 10.1486 98.0649 10.1486H100.536C100.802 10.1486 101.014 10.3627 101.014 10.6314C101.014 10.9001 100.802 11.1051 100.536 11.1051H98.6069V12.3577H100.079C100.341 12.3577 100.558 12.5718 100.558 12.8314C100.558 13.0911 100.337 13.3142 100.079 13.3142H98.6069V14.7263H100.545C100.807 14.7263 101.023 14.9495 101.023 15.2091C101.023 15.4687 100.802 15.6919 100.545 15.6919H98.0649C97.7578 15.6919 97.5274 15.4551 97.5274 15.1499V10.6815V10.6906ZM98.4398 9.22392C98.4398 9.08271 98.5211 8.94607 98.6521 8.87319L99.7 8.31749C99.8039 8.25372 99.9123 8.20361 100.007 8.20361C100.292 8.20361 100.486 8.48146 100.486 8.72743C100.486 8.91418 100.382 9.07816 100.179 9.16015L99.0315 9.6202C98.9818 9.63842 98.9186 9.66119 98.8599 9.66119C98.616 9.66119 98.4353 9.46533 98.4353 9.22847L98.4398 9.22392Z" fill="#2C2F7A"/>
<path d="M45.3931 19.2495C44.4987 19.2495 44.1826 20.1331 44.1826 21.1671C44.1826 22.2011 44.5078 22.9982 45.4925 22.9982C45.7861 22.9982 46.039 22.9253 46.2242 22.8524C46.3959 22.7887 46.5494 22.7067 46.7211 22.7067C47.0147 22.7067 47.1773 22.9208 47.1773 23.1804C47.1773 23.3262 47.114 23.4901 46.9243 23.6222C46.5675 23.8682 45.8583 23.9821 45.3976 23.9821C43.8122 23.9821 43.1121 22.7295 43.1121 21.1443C43.1121 19.5592 43.7625 18.2656 45.357 18.2656C45.8132 18.2656 46.2513 18.3704 46.5269 18.5025C46.9018 18.6665 47.1186 18.9352 47.1547 19.4044L47.1728 19.6822C47.2044 20.1104 46.9785 20.2743 46.7075 20.2743C46.4546 20.2743 46.2423 20.1195 46.1971 19.7915L46.1384 19.4317C45.9532 19.3178 45.6506 19.2495 45.3976 19.2495H45.3931Z" fill="#2C2F7A"/>
<path d="M48.2568 18.8892C48.2568 18.5795 48.4826 18.3472 48.7943 18.3472H51.265C51.5315 18.3472 51.7438 18.5612 51.7438 18.83C51.7438 19.0987 51.5315 19.3037 51.265 19.3037H49.3363V20.5563H50.8088C51.0708 20.5563 51.2876 20.7704 51.2876 21.03C51.2876 21.2897 51.0663 21.5128 50.8088 21.5128H49.3363V22.9249H51.2741C51.5361 22.9249 51.7529 23.1481 51.7529 23.4077C51.7529 23.6673 51.5315 23.8905 51.2741 23.8905H48.7943C48.4871 23.8905 48.2568 23.6537 48.2568 23.3485V18.8801V18.8892Z" fill="#2C2F7A"/>
<path d="M52.8641 18.8301C52.8641 18.5341 53.0899 18.2881 53.4513 18.2881C53.7042 18.2881 53.9075 18.4111 54.0294 18.6252L55.8452 21.7681H55.8769V18.8301C55.8769 18.5341 56.1208 18.2881 56.4144 18.2881C56.708 18.2881 56.9519 18.5341 56.9519 18.8301V23.4124C56.9519 23.6902 56.7306 23.9544 56.3647 23.9544C56.1117 23.9544 55.8994 23.8314 55.7775 23.6174L53.9707 20.5519H53.9481V23.4124C53.9481 23.6993 53.7042 23.9544 53.4016 23.9544C53.099 23.9544 52.8641 23.6993 52.8641 23.4124V18.8301Z" fill="#2C2F7A"/>
<path d="M59.3233 19.3037H58.3476C58.0856 19.3037 57.8688 19.0896 57.8688 18.83C57.8688 18.5704 58.0902 18.3472 58.3476 18.3472H61.374C61.6359 18.3472 61.8528 18.5612 61.8528 18.83C61.8528 19.0987 61.6314 19.3037 61.374 19.3037H60.3983V23.4123C60.3983 23.7174 60.1725 23.9543 59.8608 23.9543C59.5491 23.9543 59.3233 23.7174 59.3233 23.4123V19.3037Z" fill="#2C2F7A"/>
<path d="M63.8493 23.4124C63.8493 23.6994 63.6053 23.9544 63.3027 23.9544C63.0001 23.9544 62.7652 23.6994 62.7652 23.4124V18.8848C62.7652 18.5887 63.0001 18.3428 63.3027 18.3428H64.6849C65.7328 18.3428 66.5865 19.0807 66.5865 20.1556C66.5865 20.8434 66.2116 21.3263 65.6922 21.5813L66.5955 23.089C66.6452 23.171 66.7175 23.3122 66.7175 23.4261C66.7175 23.7358 66.4646 23.9499 66.171 23.9499C65.9677 23.9499 65.787 23.8041 65.7057 23.6629L64.6668 21.8501C64.5449 21.8592 64.441 21.8592 64.31 21.8592H63.8447V23.4079L63.8493 23.4124ZM63.8493 21.0165H64.6217C65.1501 21.0165 65.516 20.6795 65.516 20.1556C65.516 19.6318 65.1501 19.3039 64.6217 19.3039H63.8493V21.0165Z" fill="#2C2F7A"/>
<path d="M67.7745 18.8301C67.7745 18.5341 68.0094 18.2881 68.312 18.2881C68.6146 18.2881 68.8495 18.5341 68.8495 18.8301V21.9229C68.8495 22.506 69.1341 22.9979 69.7845 22.9979C70.4349 22.9979 70.7195 22.506 70.7195 21.9229V18.8301C70.7195 18.5341 70.9634 18.2881 71.257 18.2881C71.5506 18.2881 71.7945 18.5341 71.7945 18.8301V21.9047C71.7945 23.0207 71.1351 23.9818 69.7845 23.9818C68.4339 23.9818 67.7745 23.0207 67.7745 21.9047V18.8301Z" fill="#2C2F7A"/>
<path d="M73.1677 18.8392C73.1677 18.5432 73.4025 18.2881 73.6961 18.2881C73.9897 18.2881 74.1659 18.402 74.2833 18.6343L75.521 21.103H75.539L76.7767 18.6343C76.8896 18.4065 77.0838 18.2881 77.3548 18.2881C77.6575 18.2881 77.8924 18.5432 77.8924 18.8392V23.4169C77.8924 23.713 77.6484 23.959 77.3548 23.959C77.0477 23.959 76.8083 23.7039 76.8083 23.4169V20.6293H76.7586L76.0991 21.9912C75.9953 22.2144 75.792 22.3602 75.53 22.3602C75.268 22.3602 75.0648 22.2144 74.9609 21.9912L74.2924 20.6293H74.2517V23.4169C74.2517 23.7039 74.0078 23.959 73.7052 23.959C73.4025 23.959 73.1677 23.713 73.1677 23.4169V18.8392Z" fill="#2C2F7A"/>
</g>
<defs>
<clipPath id="clip0_653_6998">
<rect width="101" height="24" fill="white"/>
</clipPath>
</defs>
</svg>
