<svg xmlns="http://www.w3.org/2000/svg" version="1.1" xmlns:xlink="http://www.w3.org/1999/xlink" xmlns:svgjs="http://svgjs.dev/svgjs" width="1000" height="1000"><g clip-path="url(#SvgjsClipPath1162)"><rect width="1000" height="1000" fill="#ffffff"></rect><g transform="matrix(23.076923076923077,0,0,23.076923076923077,50,234.61538461538464)"><svg xmlns="http://www.w3.org/2000/svg" version="1.1" xmlns:xlink="http://www.w3.org/1999/xlink" xmlns:svgjs="http://svgjs.dev/svgjs" width="39" height="23"><svg width="39" height="23" viewBox="0 0 39 23" fill="#2C2F7A" xmlns="http://www.w3.org/2000/svg"><path d="M13.688 22.909c-1.1 0-2.035-.533-2.578-1.467L4.952 11.084v9.384c0 1.325-1.136 2.441-2.477 2.441S.03 21.789.03 20.468V3.282C.03 1.888 1.161.84 2.662.84c1.095 0 1.998.52 2.545 1.467l6.218 10.663v-1.485c0-.227.187-.414.415-.414s.415.187.415.414v2.806a.416.416 0 0 1-.415.415h-.123a.41.41 0 0 1-.356-.205L4.496 2.726c-.402-.692-1.031-1.057-1.83-1.057-1.062 0-1.801.665-1.801 1.617v17.186a1.64 1.64 0 0 0 1.62 1.617c.88 0 1.65-.738 1.65-1.617V9.741c0-.228.188-.415.416-.415h.09c.147 0 .284.078.357.2l6.838 11.502c.396.683 1.053 1.056 1.86 1.056 1.187 0 1.803-.815 1.803-1.616v-6.031c0-.228.187-.415.415-.415s.415.187.415.415v6.03c0 1.185-.922 2.442-2.632 2.442z"></path><path d="M18.655 23c-.356 0-.757-.019-1.168-.05a.414.414 0 1 1 .069-.825c.388.032.77.046 1.104.046 4.055 0 6.883-2.396 6.883-5.83s-2.805-4.856-5.93-6.104c-2.504-1.012-4.019-1.622-4.019-3.426 0-.933.43-2.505 3.308-2.505a9.2 9.2 0 0 1 2.586.387c.15.046.26.173.287.328l.187 1.139c.124.943.698 1.499 1.533 1.499.438 0 .803-.146 1.04-.406.27-.3.374-.779.306-1.38l-.123-1.33c-.133-1.193-.68-1.85-1.953-2.328-1.049-.414-2.408-.651-3.731-.651-4.106 0-6.76 2.177-6.76 5.552 0 3.194 2.294 4.378 5.533 5.708l.096.036c2.43.998 4.351 1.781 4.351 3.817 0 1.677-1.373 2.72-3.585 2.72-.292 0-.643-.019-1-.046a.407.407 0 0 1-.373-.446.404.404 0 0 1 .447-.374c.328.027.661.046.926.046 1.752 0 2.76-.693 2.76-1.895 0-1.417-1.314-2.022-3.837-3.052l-.095-.04c-2.833-1.162-6.045-2.479-6.045-6.469S14.432.744 19.043.744c1.423 0 2.892.255 4.033.706 1.564.592 2.308 1.494 2.476 3.016l.124 1.33c.123 1.052-.21 1.676-.511 2.013-.393.442-.981.683-1.656.683-1.25 0-2.176-.865-2.35-2.205l-.14-.865a8.4 8.4 0 0 0-2.1-.282c-2.48 0-2.48 1.261-2.48 1.676 0 1.152.852 1.594 3.498 2.66 3.262 1.303 6.446 2.906 6.446 6.869S23.213 23 18.669 23z"></path><path d="M31.683 23c-2.016 0-3.754-.51-5.16-1.521a.415.415 0 1 1 .485-.675c1.263.907 2.837 1.367 4.68 1.367s4.333-.451 5.556-1.28c.638-.442.775-.961.775-1.321 0-.633-.342-1.371-1.309-1.371-.433 0-.848.168-1.327.364q-.198.084-.402.16c-.985.382-1.966.578-2.92.578-3.562 0-5.373-2.446-5.373-7.27s1.825-7.606 5-7.606c1.095 0 2.28.287 3.015.738a.4.4 0 0 1 .191.287l.215 1.353c.141.933.698 1.466 1.533 1.466.296 0 .711-.064.999-.373.273-.296.392-.766.342-1.394l-.064-1.052c-.105-1.499-.762-2.437-2.121-3.03-.89-.418-2.468-.856-4.27-.856-1.683 0-3.143.415-4.338 1.226a.413.413 0 0 1-.575-.11.41.41 0 0 1 .11-.574c1.336-.91 2.951-1.37 4.803-1.37 1.624 0 3.39.355 4.612.929 1.624.706 2.481 1.926 2.61 3.725l.063 1.053c.068.86-.123 1.54-.561 2.013-.388.419-.944.638-1.606.638-1.25 0-2.148-.83-2.349-2.168l-.182-1.153c-.62-.319-1.565-.524-2.427-.524-3.631 0-4.174 4.25-4.174 6.783 0 4.336 1.487 6.445 4.543 6.445.858 0 1.715-.173 2.623-.524.132-.05.26-.105.388-.155.515-.21 1.044-.428 1.642-.428 1.26 0 2.14.902 2.14 2.195 0 .784-.402 1.494-1.132 2-1.537 1.048-4.447 1.426-6.026 1.426z"></path></svg></svg></g></g><defs><clipPath id="SvgjsClipPath1162"><rect width="1000" height="1000" x="0" y="0" rx="350" ry="350"></rect></clipPath></defs></svg>